<svg width="94" height="14" viewBox="0 0 94 14" fill="none" xmlns="http://www.w3.org/2000/svg">
<path fill-rule="evenodd" clip-rule="evenodd" d="M15.588 10.8977C13.5551 10.8977 12.3089 10.0669 11.8493 8.40528H21.8455C21.9339 7.91033 21.9781 7.4419 21.9781 6.99998C21.9781 5.02019 21.3417 3.35857 20.069 2.01514C18.814 0.671714 17.2142 0 15.2698 0C13.2193 0 11.54 0.671714 10.2319 2.01514C8.92384 3.3409 8.2698 5.00251 8.2698 6.99998C8.2698 9.01512 8.93268 10.6856 10.2584 12.0113C11.5842 13.3371 13.343 14 15.5349 14C18.0804 14 20.0071 13.0543 21.3152 11.1628L18.5577 9.57194C17.8859 10.4558 16.896 10.8977 15.588 10.8977ZM18.5577 5.75377H11.7963C11.9908 4.90529 12.3885 4.25125 12.9895 3.79165C13.5905 3.31438 14.3506 3.07575 15.2698 3.07575C16.0476 3.07575 16.737 3.29671 17.338 3.73862C17.9566 4.18054 18.3632 4.85226 18.5577 5.75377ZM4.98483 0.742422C4.26009 1.16666 3.73863 1.80302 3.42044 2.65151V0.371211H0V13.6287H3.42044V7.29164C3.42044 6.01892 3.82701 5.10857 4.64014 4.56059C5.47094 4.01261 6.40781 3.80049 7.45074 3.92423V0.106059C6.54922 0.106059 5.72726 0.31818 4.98483 0.742422ZM25.5616 11.9848C26.905 13.3282 28.5754 14 30.5729 14C31.8633 14 33.0388 13.6906 34.0994 13.0719C35.16 12.4356 35.982 11.5959 36.5653 10.553L33.5956 8.85603C33.3305 9.40401 32.9239 9.83709 32.3759 10.1553C31.8456 10.4558 31.2358 10.606 30.5464 10.606C29.5212 10.606 28.6727 10.2702 28.001 9.59845C27.3292 8.90906 26.9934 8.0429 26.9934 6.99998C26.9934 5.93938 27.3292 5.07322 28.001 4.4015C28.6727 3.71211 29.5212 3.36741 30.5464 3.36741C31.2181 3.36741 31.8191 3.5265 32.3494 3.84468C32.8974 4.16287 33.304 4.59595 33.5691 5.14392L36.5123 3.42044C35.9643 2.37752 35.16 1.54671 34.0994 0.928026C33.0388 0.309342 31.8633 0 30.5729 0C28.5754 0 26.905 0.671714 25.5616 2.01514C24.2358 3.35857 23.5729 5.02019 23.5729 6.99998C23.5729 8.97977 24.2358 10.6414 25.5616 11.9848ZM48.0838 6.99998C48.0838 7.36749 48.0425 7.71272 47.9597 8.03566L46.1044 7.53853L48.49 11.6705L52.622 9.28491L51.2621 8.92053C51.4235 8.316 51.5043 7.67581 51.5043 6.99998C51.5043 5.03786 50.8237 3.38509 49.4626 2.04166C48.1015 0.680553 46.4399 0 44.4778 0C42.5157 0 40.8541 0.680553 39.493 2.04166C38.1495 3.38509 37.4778 5.03786 37.4778 6.99998C37.4778 8.96209 38.1495 10.6237 39.493 11.9848C40.8541 13.3282 42.5157 14 44.4778 14C45.43 14 46.3114 13.8418 47.1221 13.5254L45.4066 10.5541C45.114 10.6241 44.8044 10.6591 44.4778 10.6591C43.4525 10.6591 42.5952 10.3144 41.9058 9.62497C41.2341 8.93558 40.8983 8.06058 40.8983 6.99998C40.8983 5.93938 41.2341 5.06438 41.9058 4.37499C42.5952 3.68559 43.4525 3.3409 44.4778 3.3409C45.503 3.3409 46.3604 3.68559 47.0498 4.37499C47.7391 5.06438 48.0838 5.93938 48.0838 6.99998ZM65.8813 0.371211H62.1161L58.8813 9.65149L55.673 0.371211H51.9078L56.9457 13.6287H60.8434L65.8813 0.371211ZM76.1163 0.371247H79.8814L74.8435 13.6288H70.9458L65.908 0.371247H69.6731L72.8814 9.65152L76.1163 0.371247ZM86.693 14C88.6552 14 90.3168 13.3282 91.6779 11.9848C93.039 10.6237 93.7195 8.96209 93.7195 6.99998C93.7195 5.03786 93.039 3.38509 91.6779 2.04166C90.3168 0.680553 88.6552 0 86.693 0C84.7309 0 83.0693 0.680553 81.7082 2.04166C80.3648 3.38509 79.6931 5.03786 79.6931 6.99998C79.6931 8.96209 80.3648 10.6237 81.7082 11.9848C83.0693 13.3282 84.7309 14 86.693 14ZM86.693 10.6591C85.6678 10.6591 84.8105 10.3144 84.1211 9.62497C83.4494 8.93558 83.1135 8.06058 83.1135 6.99998C83.1135 5.93938 83.4494 5.06438 84.1211 4.37499C84.8105 3.68559 85.6678 3.3409 86.693 3.3409C87.7183 3.3409 88.5756 3.68559 89.265 4.37499C89.9544 5.06438 90.2991 5.93938 90.2991 6.99998C90.2991 8.06058 89.9544 8.93558 89.265 9.62497C88.5756 10.3144 87.7183 10.6591 86.693 10.6591Z" fill="#8B46FF"/>
</svg>
