<svg id="exe5lcino2vp1" xmlns="http://www.w3.org/2000/svg" xmlns:xlink="http://www.w3.org/1999/xlink" viewBox="0 0 350 350" shape-rendering="geometricPrecision" text-rendering="geometricPrecision" width="350" height="350"><style><![CDATA[#exe5lcino2vp2_tr {animation: exe5lcino2vp2_tr__tr 3000ms linear infinite normal forwards}@keyframes exe5lcino2vp2_tr__tr { 0% {transform: translate(165px,174.998000px) rotate(0deg)} 100% {transform: translate(165px,174.998000px) rotate(360deg)} }]]></style><g id="exe5lcino2vp2_tr" transform="translate(165,174.998000) rotate(0)"><path id="exe5lcino2vp2" d="M207.642000,159.183000C209.281000,152.786000,210.101000,145.947000,210.101000,138.667000C210.101000,117.657000,203.273000,100.323000,189.617000,86.666700C175.960000,73.010200,158.977000,66.181900,138.667000,66.181900C118.357000,66.181900,101.374000,73.010200,87.717400,86.666700C74.411000,100.323000,67.757700,117.657000,67.757700,138.667000C67.757700,159.677000,74.411000,177.010000,87.717400,190.667000C101.374000,204.323000,118.357000,211.152000,138.667000,211.152000C145.138000,211.152000,151.271000,210.459000,157.066000,209.072000L191.049000,267.933000C174.990000,274.200000,157.530000,277.334000,138.667000,277.334000C99.798300,277.334000,66.882400,264.027000,39.919400,237.414000C13.306500,210.451000,0,177.536000,0,138.667000C0,99.798100,13.306500,67.057200,39.919400,40.444400C66.882400,13.481400,99.798300,0,138.667000,0C177.536000,0,210.452000,13.481400,237.415000,40.444400C264.378000,67.057200,277.859000,99.798100,277.859000,138.667000C277.859000,152.055000,276.260000,164.737000,273.061000,176.712000L300,183.930000L218.147000,231.188000L170.889000,149.335000L207.642000,159.183000Z" transform="translate(-140,-138.665000)" fill="rgb(255,255,255)" stroke="none" stroke-width="1"/></g></svg>